<?xml version="1.0" encoding="utf-8"?>
<svg width="64" height="64" viewBox="0 0 64 64" fill="none" xmlns="http://www.w3.org/2000/svg">
  <g>
    <g>
      <rect width="64" height="64" />
      <g transform="translate(6.4 6.4)">
        <path d="M6.39999 3.2C6.39999 1.4327 4.96736 0 3.2 0C1.43267 0 0 1.4327 0 3.2C0 3.2 0 6.4 0 6.4C0 8.1673 1.43267 9.6 3.2 9.6C4.96736 9.6 6.39999 8.1673 6.39999 6.4C6.39999 6.4 6.39999 3.2 6.39999 3.2Z" fill="#748090" fill-rule="evenodd" transform="translate(22.4 0)" />
        <path d="M7.72538 5.46274C8.97498 4.21305 8.97498 2.18694 7.72538 0.937246C6.47575 -0.312416 4.44954 -0.312416 3.19992 0.937246C3.19992 0.937246 0.937199 3.2 0.937199 3.2C-0.312401 4.44966 -0.312401 6.4758 0.937199 7.72546C2.1868 8.97515 4.21306 8.97515 5.46266 7.72546C5.46266 7.72546 7.72538 5.46274 7.72538 5.46274Z" fill="#748090" fill-rule="evenodd" transform="translate(35.978 6.56)" />
        <path d="M9.6 3.2C9.6 4.96736 8.16736 6.39999 6.4 6.39999C6.4 6.39999 3.2 6.39999 3.2 6.39999C1.43264 6.39999 0 4.96736 0 3.2C0 1.43267 1.43264 0 3.2 0C3.2 0 6.4 0 6.4 0C8.16736 0 9.6 1.43267 9.6 3.2Z" fill="#748090" fill-rule="evenodd" transform="translate(41.6 22.4)" />
        <path d="M3.2 7.72546C4.44966 8.97515 6.4758 8.97515 7.72546 7.72546C8.97515 6.4758 8.97515 4.44966 7.72546 3.2C7.72546 3.2 5.46274 0.937246 5.46274 0.937246C4.21305 -0.312416 2.18694 -0.312416 0.937246 0.937246C-0.312416 2.18691 -0.312416 4.21305 0.937246 5.46271C0.937246 5.46271 3.2 7.72546 3.2 7.72546Z" fill="#748090" fill-rule="evenodd" transform="translate(6.56 6.56)" />
        <path d="M9.6 3.2C9.6 4.96736 8.1673 6.39999 6.4 6.39999C6.4 6.39999 3.2 6.39999 3.2 6.39999C1.4327 6.39999 0 4.96736 0 3.2C0 1.43267 1.4327 0 3.2 0C3.2 0 6.4 0 6.4 0C8.1673 0 9.6 1.43267 9.6 3.2Z" fill="#748090" fill-rule="evenodd" transform="translate(0 22.4)" />
        <path d="M0 0L12.8 0C12.8 0 12.8 3.2 12.8 3.2C12.8 6.73472 9.93472 9.6 6.4 9.6C2.86538 9.6 0 6.73472 0 3.2C0 3.2 0 0 0 0Z" fill="#9333EA" fill-rule="evenodd" transform="translate(19.2 41.6)" />
        <path d="M19.2029 25.6C19.2496 24.511 19.8643 23.5318 20.7257 22.8515C23.6947 20.5075 25.6 16.8762 25.6 12.8C25.6 5.73075 19.8691 0 12.8 0C5.73075 0 0 5.73075 0 12.8C0 16.8762 1.90544 20.5075 4.87421 22.8515C5.73571 23.5318 6.35043 24.511 6.39715 25.6C6.39715 25.6 19.2029 25.6 19.2029 25.6Z" fill="#9333EA" fill-rule="evenodd" transform="translate(12.8 12.8)" />
      </g>
    </g>
  </g>
</svg>