<?xml version="1.0" encoding="utf-8"?>
<svg width="140.176" height="86.889" viewBox="0 0 140.176 86.889" fill="none" xmlns="http://www.w3.org/2000/svg">
  <g>
    <g transform="translate(37.5 1.25)">
      <path d="M33.5 67C14.9985 67 0 52.0015 0 33.5C0 14.9985 14.9985 0 33.5 0C52.0015 0 67 14.9985 67 33.5C67 52.0015 52.0015 67 33.5 67Z" fill="#F3F7FF" fill-rule="evenodd" stroke-width="2.5" stroke="#7E22CE" />
      <path d="M21.1321 52.4939C22.8908 52.8185 24.6801 52.9872 26.5 53C41.1355 53 53 41.1355 53 26.5C53 11.8645 41.1355 0 26.5 0C22.7404 0 19.1636 0.782928 15.9238 2.19464C10.2938 4.64787 5.68158 8.99993 2.89599 14.4419C1.04451 18.0589 0 22.1575 0 26.5C0 30.44 0.859851 34.1792 2.40214 37.5401C3.50322 39.9396 4.95214 42.1463 6.68434 44.0956" fill="#FFFFFF" fill-rule="evenodd" stroke-width="2.5" stroke="#7E22CE" stroke-linecap="round" transform="translate(7 7)" />
      <path d="M0 0C2.14812 1.74598 4.57496 3.1623 7.20344 4.17189" fill="none" stroke-width="2.5" stroke="#7E22CE" stroke-linecap="round" transform="translate(16.797 54.075)" />
      <path d="M0 0L6 6" fill="none" stroke-width="2.5" stroke="#1F64E7" transform="translate(61 60)" />
      <path d="M1.41953 8.27366L12.5048 19.359C14.3975 21.2517 17.4662 21.2517 19.359 19.359C21.2517 17.4662 21.2517 14.3975 19.359 12.5048L8.27366 1.41953C6.38095 -0.473179 3.31225 -0.473179 1.41953 1.41953C-0.473175 3.31225 -0.473175 6.38095 1.41953 8.27366Z" fill="#E8F0FE" fill-rule="evenodd" stroke-width="2.5" stroke="#7E22CE" transform="translate(64.611 63.611)" />
      <path d="M0 0L11 11" fill="none" stroke-width="2.5" stroke="#FFFFFF" stroke-linecap="round" transform="translate(71 67)" />
      <path d="M37.1607 31.899C39.439 31.899 41.6326 31.5361 43.6869 30.8651C40.3338 39.186 32.1832 45.0596 22.6607 45.0596C10.1455 45.0596 0 34.9141 0 22.399C0 11.0585 8.33037 1.6637 19.2057 0C17.2736 3.17823 16.1607 6.90862 16.1607 10.899C16.1607 22.4969 25.5627 31.899 37.1607 31.899Z" fill="#E8F0FE" fill-rule="evenodd" transform="translate(10.839 11.101)" />
      <path d="M16.7727 2.84023Q18.4863 2.5 20.25 2.5Q20.3114 2.5 20.3725 2.49398Q20.4336 2.48796 20.4939 2.47598Q20.5541 2.464 20.6129 2.44618Q20.6716 2.42835 20.7284 2.40485Q20.7851 2.38135 20.8392 2.3524Q20.8934 2.32345 20.9445 2.28934Q20.9955 2.25522 21.043 2.21626Q21.0905 2.17731 21.1339 2.13388Q21.1773 2.09046 21.2163 2.04299Q21.2552 1.99552 21.2893 1.94446Q21.3235 1.8934 21.3524 1.83925Q21.3813 1.78509 21.4048 1.72835Q21.4283 1.67162 21.4462 1.61286Q21.464 1.55409 21.476 1.49386Q21.488 1.43363 21.494 1.37252Q21.5 1.31141 21.5 1.25Q21.5 1.18859 21.494 1.12748Q21.488 1.06637 21.476 1.00614Q21.464 0.945908 21.4462 0.887144Q21.4283 0.82838 21.4048 0.771646Q21.3813 0.714912 21.3524 0.660754Q21.3235 0.606597 21.2893 0.555537Q21.2552 0.504478 21.2163 0.457008Q21.1773 0.409539 21.1339 0.366116Q21.0905 0.322694 21.043 0.283737Q20.9955 0.24478 20.9445 0.210663Q20.8934 0.176546 20.8392 0.147598Q20.7851 0.118651 20.7284 0.0951506Q20.6716 0.0716505 20.6129 0.0538246Q20.5541 0.0359986 20.4939 0.0240184Q20.4336 0.0120382 20.3725 0.00601909Q20.3114 0 20.25 0Q18.2405 0 16.2858 0.388089Q16.2256 0.400048 16.1668 0.417853Q16.1081 0.435658 16.0513 0.459137Q15.9946 0.482617 15.9404 0.511545Q15.8862 0.540474 15.8352 0.574572Q15.7841 0.608671 15.7366 0.647611Q15.6891 0.686551 15.6457 0.729958Q15.6022 0.773365 15.5633 0.82082Q15.5243 0.868276 15.4902 0.919323Q15.456 0.97037 15.4271 1.02452Q15.3981 1.07866 15.3746 1.13539Q15.3511 1.19212 15.3332 1.25087Q15.3154 1.30963 15.3034 1.36986Q15.2914 1.43008 15.2853 1.49119Q15.2793 1.5523 15.2793 1.61371Q15.2792 1.67512 15.2852 1.73623Q15.2912 1.79735 15.3032 1.85758Q15.3272 1.97834 15.3742 2.0921Q15.4213 2.20586 15.4897 2.30825Q15.558 2.41064 15.6451 2.49772Q15.7321 2.58481 15.8344 2.65325Q15.9368 2.72168 16.0505 2.76884Q16.1642 2.81599 16.285 2.84005Q16.4057 2.86411 16.5288 2.86416Q16.6519 2.8642 16.7727 2.84023ZM11.532 4.77688Q12.4186 4.28207 13.379 3.87846Q13.4356 3.85467 13.4896 3.82545Q13.5436 3.79622 13.5945 3.76185Q13.6454 3.72747 13.6927 3.68827Q13.74 3.64907 13.7831 3.60542Q13.8263 3.56178 13.8651 3.51411Q13.9038 3.46644 13.9376 3.41521Q13.9715 3.36397 14.0002 3.30967Q14.0288 3.25536 14.052 3.19851Q14.0752 3.14166 14.0928 3.0828Q14.1103 3.02395 14.122 2.96366Q14.1336 2.90337 14.1393 2.84223Q14.145 2.78108 14.1447 2.71968Q14.1444 2.65827 14.1381 2.59719Q14.1318 2.5361 14.1195 2.47594Q14.1072 2.41577 14.089 2.3571Q14.0709 2.29843 14.0471 2.24181Q13.9994 2.12831 13.9305 2.0263Q13.8616 1.92429 13.7741 1.83768Q13.6866 1.75107 13.5839 1.6832Q13.4812 1.61532 13.3672 1.56879Q13.2532 1.52226 13.1323 1.49886Q13.0115 1.47547 12.8883 1.4761Q12.7652 1.47673 12.6446 1.50136Q12.524 1.526 12.4105 1.5737Q6.85938 3.90644 3.47206 8.90803Q0 14.0348 0 20.25Q0 20.3114 0.0060191 20.3725Q0.0120382 20.4336 0.0240184 20.4939Q0.0359986 20.5541 0.0538246 20.6129Q0.0716506 20.6716 0.0951506 20.7284Q0.118651 20.7851 0.147599 20.8392Q0.176546 20.8934 0.210663 20.9445Q0.24478 20.9955 0.283737 21.043Q0.322694 21.0905 0.366117 21.1339Q0.409539 21.1773 0.457009 21.2163Q0.504478 21.2552 0.555538 21.2893Q0.606597 21.3235 0.660755 21.3524Q0.714912 21.3813 0.771646 21.4048Q0.82838 21.4283 0.887145 21.4462Q0.945909 21.464 1.00614 21.476Q1.06637 21.488 1.12748 21.494Q1.18859 21.5 1.25 21.5Q1.37312 21.5 1.49386 21.476Q1.61461 21.452 1.72836 21.4048Q1.8421 21.3577 1.94446 21.2893Q2.04683 21.2209 2.13389 21.1339Q2.22094 21.0468 2.28934 20.9445Q2.35774 20.8421 2.40485 20.7284Q2.45196 20.6146 2.47598 20.4939Q2.5 20.3731 2.5 20.25Q2.5 19.2083 2.61121 18.2016Q3.08163 13.9429 5.54203 10.3099Q7.92644 6.78915 11.532 4.77688Z" fill="none" stroke-width="2.5" stroke="#C084FC" stroke-linecap="round" transform="translate(13.75 13.75)" />
    </g>
    <path d="M0 1.25Q0 1.31141 0.00601909 1.37252Q0.0120382 1.43363 0.0240184 1.49386Q0.0359986 1.55409 0.0538246 1.61286Q0.0716505 1.67162 0.0951506 1.72835Q0.118651 1.78509 0.147598 1.83925Q0.176546 1.8934 0.210663 1.94446Q0.24478 1.99552 0.283737 2.04299Q0.322694 2.09046 0.366116 2.13388Q0.409539 2.17731 0.457008 2.21626Q0.504478 2.25522 0.555537 2.28934Q0.606597 2.32345 0.660754 2.3524Q0.714912 2.38135 0.771646 2.40485Q0.82838 2.42835 0.887144 2.44618Q0.945909 2.464 1.00614 2.47598Q1.06637 2.48796 1.12748 2.49398Q1.18859 2.5 1.25 2.5L18.4258 2.5Q18.4872 2.5 18.5483 2.49398Q18.6094 2.48796 18.6696 2.47598Q18.7299 2.464 18.7886 2.44618Q18.8474 2.42835 18.9041 2.40485Q18.9609 2.38135 19.015 2.3524Q19.0692 2.32345 19.1202 2.28934Q19.1713 2.25522 19.2188 2.21626Q19.2662 2.17731 19.3097 2.13388Q19.3531 2.09046 19.392 2.04299Q19.431 1.99552 19.4651 1.94446Q19.4992 1.8934 19.5282 1.83925Q19.5571 1.78509 19.5806 1.72835Q19.6041 1.67162 19.622 1.61286Q19.6398 1.55409 19.6518 1.49386Q19.6637 1.43363 19.6698 1.37252Q19.6758 1.31141 19.6758 1.25Q19.6758 1.18859 19.6698 1.12748Q19.6637 1.06637 19.6518 1.00614Q19.6398 0.945908 19.622 0.887144Q19.6041 0.82838 19.5806 0.771646Q19.5571 0.714912 19.5282 0.660754Q19.4992 0.606597 19.4651 0.555537Q19.431 0.504478 19.392 0.457008Q19.3531 0.409539 19.3097 0.366116Q19.2662 0.322694 19.2188 0.283737Q19.1713 0.24478 19.1202 0.210663Q19.0692 0.176546 19.015 0.147598Q18.9609 0.118651 18.9041 0.0951506Q18.8474 0.0716505 18.7886 0.0538246Q18.7299 0.0359986 18.6696 0.0240184Q18.6094 0.0120382 18.5483 0.00601909Q18.4872 0 18.4258 0L1.25 0Q1.18859 0 1.12748 0.00601909Q1.06637 0.0120382 1.00614 0.0240184Q0.945908 0.0359986 0.887144 0.0538246Q0.82838 0.0716505 0.771646 0.0951506Q0.714912 0.118651 0.660754 0.147598Q0.606597 0.176546 0.555537 0.210663Q0.504478 0.24478 0.457008 0.283737Q0.409539 0.322694 0.366116 0.366116Q0.322694 0.409539 0.283737 0.457008Q0.24478 0.504478 0.210663 0.555537Q0.176546 0.606597 0.147598 0.660754Q0.118651 0.714912 0.0951506 0.771646Q0.0716505 0.82838 0.0538246 0.887144Q0.0359986 0.945909 0.0240184 1.00614Q0.0120382 1.06637 0.00601909 1.12748Q0 1.18859 0 1.25ZM21.9546 1.25Q21.9546 1.31141 21.9606 1.37252Q21.9666 1.43363 21.9786 1.49386Q21.9906 1.55409 22.0084 1.61286Q22.0262 1.67162 22.0497 1.72835Q22.0732 1.78509 22.1022 1.83925Q22.1311 1.8934 22.1653 1.94446Q22.1994 1.99552 22.2383 2.04299Q22.2773 2.09046 22.3207 2.13388Q22.3641 2.17731 22.4116 2.21626Q22.4591 2.25522 22.5101 2.28934Q22.5612 2.32345 22.6153 2.3524Q22.6695 2.38135 22.7262 2.40485Q22.783 2.42835 22.8417 2.44618Q22.9005 2.464 22.9607 2.47598Q23.021 2.48796 23.0821 2.49398Q23.1432 2.5 23.2046 2.5L25.4258 2.5Q25.4872 2.5 25.5483 2.49398Q25.6094 2.48796 25.6696 2.47598Q25.7299 2.464 25.7886 2.44618Q25.8474 2.42835 25.9041 2.40485Q25.9609 2.38135 26.015 2.3524Q26.0692 2.32345 26.1202 2.28934Q26.1713 2.25522 26.2188 2.21626Q26.2662 2.17731 26.3097 2.13388Q26.3531 2.09046 26.392 2.04299Q26.431 1.99552 26.4651 1.94446Q26.4992 1.8934 26.5282 1.83925Q26.5571 1.78509 26.5806 1.72835Q26.6041 1.67162 26.622 1.61286Q26.6398 1.55409 26.6518 1.49386Q26.6637 1.43363 26.6698 1.37252Q26.6758 1.31141 26.6758 1.25Q26.6758 1.18859 26.6698 1.12748Q26.6637 1.06637 26.6518 1.00614Q26.6398 0.945908 26.622 0.887144Q26.6041 0.82838 26.5806 0.771646Q26.5571 0.714912 26.5282 0.660754Q26.4992 0.606597 26.4651 0.555537Q26.431 0.504478 26.392 0.457008Q26.3531 0.409539 26.3097 0.366116Q26.2662 0.322694 26.2188 0.283737Q26.1713 0.24478 26.1202 0.210663Q26.0692 0.176546 26.015 0.147598Q25.9609 0.118651 25.9041 0.0951506Q25.8474 0.0716505 25.7886 0.0538246Q25.7299 0.0359986 25.6696 0.0240184Q25.6094 0.0120382 25.5483 0.00601909Q25.4872 0 25.4258 0L23.2046 0Q23.1432 0 23.0821 0.00601909Q23.021 0.0120382 22.9607 0.0240184Q22.9005 0.0359986 22.8417 0.0538246Q22.783 0.0716505 22.7262 0.0951506Q22.6695 0.118651 22.6153 0.147598Q22.5612 0.176546 22.5101 0.210663Q22.4591 0.24478 22.4116 0.283737Q22.3641 0.322694 22.3207 0.366116Q22.2773 0.409539 22.2383 0.457008Q22.1994 0.504478 22.1653 0.555537Q22.1311 0.606597 22.1022 0.660754Q22.0732 0.714912 22.0497 0.771646Q22.0262 0.82838 22.0084 0.887144Q21.9906 0.945909 21.9786 1.00614Q21.9666 1.06637 21.9606 1.12748Q21.9546 1.18859 21.9546 1.25ZM3.92578 10.2773L12.1016 10.2773Q12.163 10.2773 12.2241 10.2713Q12.2852 10.2653 12.3454 10.2533Q12.4057 10.2413 12.4644 10.2235Q12.5232 10.2057 12.5799 10.1822Q12.6367 10.1587 12.6908 10.1297Q12.745 10.1008 12.796 10.0667Q12.8471 10.0326 12.8946 9.99361Q12.942 9.95465 12.9854 9.91123Q13.0289 9.8678 13.0678 9.82034Q13.1068 9.77287 13.1409 9.72181Q13.175 9.67075 13.204 9.61659Q13.2329 9.56243 13.2564 9.5057Q13.2799 9.44896 13.2977 9.3902Q13.3156 9.33143 13.3275 9.27121Q13.3395 9.21098 13.3455 9.14987Q13.3516 9.08875 13.3516 9.02734Q13.3516 8.96593 13.3455 8.90482Q13.3395 8.84371 13.3275 8.78348Q13.3156 8.72325 13.2977 8.66449Q13.2799 8.60572 13.2564 8.54899Q13.2329 8.49225 13.204 8.4381Q13.175 8.38394 13.1409 8.33288Q13.1068 8.28182 13.0678 8.23435Q13.0289 8.18688 12.9854 8.14346Q12.942 8.10004 12.8946 8.06108Q12.8471 8.02212 12.796 7.98801Q12.745 7.95389 12.6908 7.92494Q12.6367 7.89599 12.5799 7.87249Q12.5232 7.84899 12.4644 7.83117Q12.4057 7.81334 12.3454 7.80136Q12.2852 7.78938 12.2241 7.78336Q12.163 7.77734 12.1016 7.77734L3.92578 7.77734Q3.86437 7.77734 3.80326 7.78336Q3.74215 7.78938 3.68192 7.80136Q3.62169 7.81334 3.56293 7.83117Q3.50416 7.84899 3.44743 7.87249Q3.39069 7.89599 3.33654 7.92494Q3.28238 7.95389 3.23132 7.98801Q3.18026 8.02212 3.13279 8.06108Q3.08532 8.10004 3.0419 8.14346Q2.99848 8.18688 2.95952 8.23435Q2.92056 8.28182 2.88644 8.33288Q2.85233 8.38394 2.82338 8.4381Q2.79443 8.49225 2.77093 8.54899Q2.74743 8.60572 2.72961 8.66449Q2.71178 8.72325 2.6998 8.78348Q2.68782 8.84371 2.6818 8.90482Q2.67578 8.96593 2.67578 9.02734Q2.67578 9.08875 2.6818 9.14987Q2.68782 9.21098 2.6998 9.27121Q2.71178 9.33143 2.72961 9.3902Q2.74743 9.44896 2.77093 9.5057Q2.79443 9.56243 2.82338 9.61659Q2.85233 9.67075 2.88644 9.72181Q2.92056 9.77287 2.95952 9.82033Q2.99848 9.8678 3.0419 9.91123Q3.08532 9.95465 3.13279 9.99361Q3.18026 10.0326 3.23132 10.0667Q3.28238 10.1008 3.33654 10.1297Q3.39069 10.1587 3.44743 10.1822Q3.50416 10.2057 3.56293 10.2235Q3.62169 10.2413 3.68192 10.2533Q3.74215 10.2653 3.80326 10.2713Q3.86437 10.2773 3.92578 10.2773Z" fill="none" stroke-width="2.5" stroke="#C084FC" stroke-linecap="round" stroke-linejoin="round" transform="translate(112.25 26)" />
    <path d="M10.0454 1.25Q10.0454 1.31141 10.0514 1.37252Q10.0574 1.43363 10.0694 1.49386Q10.0814 1.55409 10.0992 1.61286Q10.1171 1.67162 10.1406 1.72835Q10.1641 1.78509 10.193 1.83925Q10.222 1.8934 10.2561 1.94446Q10.2902 1.99552 10.3291 2.04299Q10.3681 2.09046 10.4115 2.13388Q10.4549 2.17731 10.5024 2.21626Q10.5499 2.25522 10.6009 2.28934Q10.652 2.32345 10.7062 2.3524Q10.7603 2.38135 10.8171 2.40485Q10.8738 2.42835 10.9326 2.44618Q10.9913 2.464 11.0515 2.47598Q11.1118 2.48796 11.1729 2.49398Q11.234 2.5 11.2954 2.5L28.4712 2.5Q28.5326 2.5 28.5937 2.49398Q28.6548 2.48796 28.7151 2.47598Q28.7753 2.464 28.834 2.44618Q28.8928 2.42835 28.9495 2.40485Q29.0063 2.38135 29.0604 2.3524Q29.1146 2.32345 29.1657 2.28934Q29.2167 2.25522 29.2642 2.21626Q29.3117 2.17731 29.3551 2.13388Q29.3985 2.09046 29.4375 2.04299Q29.4764 1.99552 29.5105 1.94446Q29.5446 1.8934 29.5736 1.83925Q29.6025 1.78509 29.626 1.72835Q29.6495 1.67162 29.6674 1.61286Q29.6852 1.55409 29.6972 1.49386Q29.7092 1.43363 29.7152 1.37252Q29.7212 1.31141 29.7212 1.25Q29.7212 1.18859 29.7152 1.12748Q29.7092 1.06637 29.6972 1.00614Q29.6852 0.945908 29.6674 0.887144Q29.6495 0.82838 29.626 0.771646Q29.6025 0.714912 29.5736 0.660754Q29.5446 0.606597 29.5105 0.555537Q29.4764 0.504478 29.4375 0.457008Q29.3985 0.409539 29.3551 0.366116Q29.3117 0.322694 29.2642 0.283737Q29.2167 0.24478 29.1657 0.210663Q29.1146 0.176546 29.0604 0.147598Q29.0063 0.118651 28.9495 0.0951506Q28.8928 0.0716505 28.834 0.0538246Q28.7753 0.0359986 28.7151 0.0240184Q28.6548 0.0120382 28.5937 0.00601909Q28.5326 0 28.4712 0L11.2954 0Q11.234 0 11.1729 0.00601909Q11.1118 0.0120382 11.0515 0.0240184Q10.9913 0.0359986 10.9326 0.0538246Q10.8738 0.0716505 10.8171 0.0951506Q10.7603 0.118651 10.7062 0.147598Q10.652 0.176546 10.6009 0.210663Q10.5499 0.24478 10.5024 0.283737Q10.4549 0.322694 10.4115 0.366116Q10.3681 0.409539 10.3291 0.457008Q10.2902 0.504478 10.2561 0.555537Q10.222 0.606597 10.193 0.660754Q10.1641 0.714912 10.1406 0.771646Q10.1171 0.82838 10.0992 0.887144Q10.0814 0.945909 10.0694 1.00614Q10.0574 1.06637 10.0514 1.12748Q10.0454 1.18859 10.0454 1.25ZM0 1.25Q0 1.31141 0.00601909 1.37252Q0.0120382 1.43363 0.0240184 1.49386Q0.0359986 1.55409 0.0538246 1.61286Q0.0716505 1.67162 0.0951506 1.72835Q0.118651 1.78509 0.147598 1.83925Q0.176546 1.8934 0.210663 1.94446Q0.24478 1.99552 0.283737 2.04299Q0.322694 2.09046 0.366116 2.13388Q0.409539 2.17731 0.457008 2.21626Q0.504478 2.25522 0.555537 2.28934Q0.606597 2.32345 0.660754 2.3524Q0.714912 2.38135 0.771646 2.40485Q0.82838 2.42835 0.887144 2.44618Q0.945909 2.464 1.00614 2.47598Q1.06637 2.48796 1.12748 2.49398Q1.18859 2.5 1.25 2.5L5.47119 2.5Q5.5326 2.5 5.59371 2.49398Q5.65483 2.48796 5.71505 2.47598Q5.77528 2.464 5.83405 2.44618Q5.89281 2.42835 5.94955 2.40485Q6.00628 2.38135 6.06044 2.3524Q6.11459 2.32345 6.16565 2.28934Q6.21671 2.25522 6.26418 2.21626Q6.31165 2.17731 6.35507 2.13388Q6.3985 2.09046 6.43745 2.04299Q6.47641 1.99552 6.51053 1.94446Q6.54465 1.8934 6.57359 1.83925Q6.60254 1.78509 6.62604 1.72835Q6.64954 1.67162 6.66737 1.61286Q6.68519 1.55409 6.69717 1.49386Q6.70915 1.43363 6.71517 1.37252Q6.72119 1.31141 6.72119 1.25Q6.72119 1.18859 6.71517 1.12748Q6.70915 1.06637 6.69717 1.00614Q6.68519 0.945908 6.66737 0.887144Q6.64954 0.82838 6.62604 0.771646Q6.60254 0.714912 6.57359 0.660754Q6.54464 0.606597 6.51053 0.555537Q6.47641 0.504478 6.43745 0.457008Q6.3985 0.409539 6.35507 0.366116Q6.31165 0.322694 6.26418 0.283737Q6.21671 0.24478 6.16565 0.210663Q6.11459 0.176546 6.06044 0.147598Q6.00628 0.118651 5.94954 0.0951506Q5.89281 0.0716505 5.83405 0.0538246Q5.77528 0.0359986 5.71505 0.0240184Q5.65483 0.0120382 5.59371 0.00601909Q5.5326 0 5.47119 0L1.25 0Q1.18859 0 1.12748 0.00601909Q1.06637 0.0120382 1.00614 0.0240184Q0.945908 0.0359986 0.887144 0.0538246Q0.82838 0.0716505 0.771646 0.0951506Q0.714912 0.118651 0.660754 0.147598Q0.606597 0.176546 0.555537 0.210663Q0.504478 0.24478 0.457008 0.283737Q0.409539 0.322694 0.366116 0.366116Q0.322694 0.409539 0.283737 0.457008Q0.24478 0.504478 0.210663 0.555537Q0.176546 0.606597 0.147598 0.660754Q0.118651 0.714912 0.0951506 0.771646Q0.0716505 0.82838 0.0538246 0.887144Q0.0359986 0.945909 0.0240184 1.00614Q0.0120382 1.06637 0.00601909 1.12748Q0 1.18859 0 1.25ZM24.9712 11.2773L33.147 11.2773Q33.2084 11.2773 33.2695 11.2713Q33.3306 11.2653 33.3908 11.2533Q33.4511 11.2413 33.5098 11.2235Q33.5686 11.2057 33.6253 11.1822Q33.6821 11.1587 33.7362 11.1297Q33.7904 11.1008 33.8414 11.0667Q33.8925 11.0326 33.94 10.9936Q33.9874 10.9546 34.0309 10.9112Q34.0743 10.8678 34.1132 10.8203Q34.1522 10.7729 34.1863 10.7218Q34.2204 10.6707 34.2494 10.6166Q34.2783 10.5624 34.3018 10.5057Q34.3253 10.449 34.3431 10.3902Q34.361 10.3314 34.373 10.2712Q34.3849 10.211 34.391 10.1499Q34.397 10.0888 34.397 10.0273Q34.397 9.96593 34.391 9.90482Q34.3849 9.84371 34.373 9.78348Q34.361 9.72325 34.3431 9.66449Q34.3253 9.60572 34.3018 9.54899Q34.2783 9.49225 34.2494 9.4381Q34.2204 9.38394 34.1863 9.33288Q34.1522 9.28182 34.1132 9.23435Q34.0743 9.18688 34.0309 9.14346Q33.9874 9.10004 33.94 9.06108Q33.8925 9.02212 33.8414 8.98801Q33.7904 8.95389 33.7362 8.92494Q33.6821 8.89599 33.6253 8.87249Q33.5686 8.84899 33.5098 8.83117Q33.4511 8.81334 33.3908 8.80136Q33.3306 8.78938 33.2695 8.78336Q33.2084 8.77734 33.147 8.77734L24.9712 8.77734Q24.9098 8.77734 24.8487 8.78336Q24.7876 8.78938 24.7273 8.80136Q24.6671 8.81334 24.6083 8.83117Q24.5496 8.84899 24.4928 8.87249Q24.4361 8.89599 24.3819 8.92494Q24.3278 8.95389 24.2767 8.98801Q24.2257 9.02212 24.1782 9.06108Q24.1307 9.10004 24.0873 9.14346Q24.0439 9.18688 24.0049 9.23435Q23.966 9.28182 23.9319 9.33288Q23.8977 9.38394 23.8688 9.4381Q23.8398 9.49225 23.8163 9.54899Q23.7928 9.60572 23.775 9.66449Q23.7572 9.72325 23.7452 9.78348Q23.7332 9.84371 23.7272 9.90482Q23.7212 9.96593 23.7212 10.0273Q23.7212 10.0888 23.7272 10.1499Q23.7332 10.211 23.7452 10.2712Q23.7572 10.3314 23.775 10.3902Q23.7928 10.449 23.8163 10.5057Q23.8398 10.5624 23.8688 10.6166Q23.8977 10.6707 23.9319 10.7218Q23.966 10.7729 24.0049 10.8203Q24.0439 10.8678 24.0873 10.9112Q24.1307 10.9546 24.1782 10.9936Q24.2257 11.0326 24.2767 11.0667Q24.3278 11.1008 24.3819 11.1297Q24.4361 11.1587 24.4928 11.1822Q24.5496 11.2057 24.6083 11.2235Q24.6671 11.2413 24.7273 11.2533Q24.7876 11.2653 24.8487 11.2713Q24.9098 11.2773 24.9712 11.2773Z" fill="none" stroke-width="2.5" stroke="#C084FC" stroke-linecap="round" stroke-linejoin="round" transform="translate(1.25 47)" />
  </g>
</svg>