<?xml version="1.0" encoding="utf-8"?>
<svg width="138" height="56" viewBox="0 0 138 56" fill="none" xmlns="http://www.w3.org/2000/svg">
  <g>
    <g>
      <g>
        <rect width="56" height="56" />
        <g transform="translate(5.6 5.6)">
          <path d="M5.59999 2.8C5.59999 1.25362 4.34644 0 2.8 0C1.25359 0 0 1.25362 0 2.8C0 2.8 0 5.6 0 5.6C0 7.14638 1.25359 8.4 2.8 8.4C4.34644 8.4 5.59999 7.14638 5.59999 5.6C5.59999 5.6 5.59999 2.8 5.59999 2.8Z" fill="#9333EA" fill-rule="evenodd" transform="translate(19.6 0)" />
          <path d="M6.75971 4.7799C7.85311 3.68642 7.85311 1.91357 6.75971 0.820091C5.66628 -0.273364 3.89334 -0.273364 2.79993 0.820091C2.79993 0.820091 0.820051 2.79999 0.820051 2.79999C-0.27335 3.89345 -0.27335 5.66632 0.820051 6.75978C1.91345 7.85326 3.68643 7.85326 4.77983 6.75978C4.77983 6.75978 6.75971 4.7799 6.75971 4.7799Z" fill="#9333EA" fill-rule="evenodd" transform="translate(31.48 5.74)" />
          <path d="M8.4 2.8C8.4 4.34644 7.14644 5.59999 5.6 5.59999C5.6 5.59999 2.8 5.59999 2.8 5.59999C1.25356 5.59999 0 4.34644 0 2.8C0 1.25359 1.25356 0 2.8 0C2.8 0 5.6 0 5.6 0C7.14644 0 8.4 1.25359 8.4 2.8Z" fill="#9333EA" fill-rule="evenodd" transform="translate(36.4 19.6)" />
          <path d="M2.79999 6.75978C3.89345 7.85326 5.66632 7.85326 6.75978 6.75978C7.85326 5.66632 7.85326 3.89345 6.75978 2.79999C6.75978 2.79999 4.7799 0.820091 4.7799 0.820091C3.68642 -0.273364 1.91357 -0.273364 0.820091 0.820091C-0.273364 1.91355 -0.273364 3.68642 0.820091 4.77987C0.820091 4.77987 2.79999 6.75978 2.79999 6.75978Z" fill="#9333EA" fill-rule="evenodd" transform="translate(5.74 5.74)" />
          <path d="M8.4 2.8C8.4 4.34644 7.14638 5.59999 5.6 5.59999C5.6 5.59999 2.8 5.59999 2.8 5.59999C1.25362 5.59999 0 4.34644 0 2.8C0 1.25359 1.25362 0 2.8 0C2.8 0 5.6 0 5.6 0C7.14638 0 8.4 1.25359 8.4 2.8Z" fill="#9333EA" fill-rule="evenodd" transform="translate(0 19.6)" />
          <path d="M0 0L11.2 0C11.2 0 11.2 2.8 11.2 2.8C11.2 5.89288 8.69288 8.4 5.6 8.4C2.5072 8.4 0 5.89288 0 2.8C0 2.8 0 0 0 0Z" fill="#9333EA" fill-rule="evenodd" transform="translate(16.8 36.4)" />
          <path d="M16.8025 22.4C16.8434 21.4472 17.3813 20.5904 18.135 19.9951C20.7329 17.9441 22.4 14.7666 22.4 11.2C22.4 5.01441 17.3855 0 11.2 0C5.01441 0 0 5.01441 0 11.2C0 14.7666 1.66726 17.9441 4.26493 19.9951C5.01875 20.5904 5.55662 21.4472 5.59751 22.4C5.59751 22.4 16.8025 22.4 16.8025 22.4Z" fill="#9333EA" fill-rule="evenodd" transform="translate(11.2 11.2)" />
        </g>
      </g>
    </g>
    <g transform="translate(58 7)">
      <path d="M13.696 33.632Q10.944 33.632 8.64 32.656Q6.336 31.68 4.656 29.92Q2.976 28.16 2.048 25.824Q1.12 23.488 1.12 20.768Q1.12 18.048 2.048 15.712Q2.976 13.376 4.656 11.632Q6.336 9.888 8.64 8.912Q10.944 7.936 13.696 7.936Q16.448 7.936 18.752 8.896Q21.056 9.856 22.752 11.6Q24.448 13.344 25.376 15.68Q26.304 18.016 26.304 20.768Q26.304 23.488 25.376 25.824Q24.448 28.16 22.752 29.92Q21.056 31.68 18.752 32.656Q16.448 33.632 13.696 33.632ZM13.664 31.072Q15.744 31.072 17.44 30.24Q19.136 29.408 20.352 27.984Q21.568 26.56 22.208 24.688Q22.848 22.816 22.848 20.768Q22.848 18.688 22.208 16.832Q21.568 14.976 20.352 13.552Q19.136 12.128 17.44 11.312Q15.744 10.496 13.664 10.496Q11.584 10.496 9.904 11.312Q8.224 12.128 7.04 13.568Q5.856 15.008 5.216 16.848Q4.576 18.688 4.576 20.768Q4.576 22.816 5.216 24.688Q5.856 26.56 7.04 27.984Q8.224 29.408 9.904 30.24Q11.584 31.072 13.664 31.072ZM28.32 28.64L30.816 31.136L28.32 33.632L25.824 31.136L28.32 28.64Z" fill="#475569" />
      <path d="M16.768 10.912L15.008 14.368L14.912 14.368Q14.688 13.472 14.032 12.576Q13.376 11.68 12.304 11.088Q11.232 10.496 9.664 10.496Q7.648 10.496 6.352 11.52Q5.056 12.544 5.056 14.24Q5.056 15.552 5.92 16.4Q6.784 17.248 8.16 17.904Q9.536 18.56 11.072 19.296Q12.704 20.064 14.176 21.072Q15.648 22.08 16.576 23.472Q17.504 24.864 17.504 26.816Q17.504 28.832 16.528 30.368Q15.552 31.904 13.744 32.768Q11.936 33.632 9.408 33.632Q7.424 33.632 5.952 33.184Q4.48 32.736 3.472 32.112Q2.464 31.488 1.888 30.912Q1.312 30.336 1.12 30.08L3.264 26.592L3.36 26.592Q3.776 27.648 4.56 28.672Q5.344 29.696 6.544 30.384Q7.744 31.072 9.408 31.072Q11.488 31.072 12.816 29.872Q14.144 28.672 14.144 26.816Q14.144 24.928 12.864 23.792Q11.584 22.656 9.728 21.76Q8.384 21.088 6.992 20.432Q5.6 19.776 4.416 18.928Q3.232 18.08 2.496 16.928Q1.76 15.776 1.728 14.144Q1.696 12.352 2.688 10.96Q3.68 9.568 5.504 8.752Q7.328 7.936 9.728 7.936Q11.552 7.936 12.848 8.336Q14.144 8.736 14.976 9.296Q15.808 9.856 16.24 10.32Q16.672 10.784 16.768 10.912ZM22.4 28.64L24.896 31.136L22.4 33.632L19.904 31.136L22.4 28.64Z" transform="translate(32.096 0)" fill="#9333EA" />
      <path d="M9.024 8.384Q11.456 8.384 13.488 9.264Q15.52 10.144 16.752 11.76Q17.984 13.376 17.984 15.584Q17.984 17.344 17.184 18.752Q16.384 20.16 14.992 21.136Q13.6 22.112 11.84 22.56L16.448 29.248Q17.216 30.24 18.064 31.232Q18.912 32.224 19.84 33.184L14.88 33.184Q14.464 32.256 13.808 31.152Q13.152 30.048 12.032 28.352L8.128 22.912L6.016 22.912L6.016 26.08Q6.016 27.872 6.096 29.664Q6.176 31.456 6.592 33.184L2.24 33.184Q2.656 31.456 2.736 29.664Q2.816 27.872 2.816 26.08L2.816 15.488Q2.816 13.696 2.736 11.904Q2.656 10.112 2.24 8.384L9.024 8.384ZM6.016 20.352L8.064 20.352Q11.2 20.352 12.864 19.136Q14.528 17.92 14.528 15.584Q14.528 13.216 12.864 12.08Q11.2 10.944 8.064 10.944L6.016 10.944L6.016 20.352Z" transform="translate(58.272 0)" fill="#475569" />
    </g>
  </g>
</svg>