<?xml version="1.0" encoding="utf-8"?>
<svg width="443" height="64" viewBox="0 0 443 64" fill="none" xmlns="http://www.w3.org/2000/svg">
  <g>
    <rect width="443" height="64"  fill-rule="evenodd" />
    <g>
      <g>
        <rect width="64" height="64" />
        <g transform="translate(6.4 6.4)">
          <path d="M6.39999 3.2C6.39999 1.4327 4.96736 0 3.2 0C1.43267 0 0 1.4327 0 3.2C0 3.2 0 6.4 0 6.4C0 8.1673 1.43267 9.6 3.2 9.6C4.96736 9.6 6.39999 8.1673 6.39999 6.4C6.39999 6.4 6.39999 3.2 6.39999 3.2Z" fill="#9333EA" fill-rule="evenodd" transform="translate(22.4 0)" />
          <path d="M7.72538 5.46274C8.97498 4.21305 8.97498 2.18694 7.72538 0.937246C6.47575 -0.312416 4.44954 -0.312416 3.19992 0.937246C3.19992 0.937246 0.937199 3.2 0.937199 3.2C-0.312401 4.44966 -0.312401 6.4758 0.937199 7.72546C2.1868 8.97515 4.21306 8.97515 5.46266 7.72546C5.46266 7.72546 7.72538 5.46274 7.72538 5.46274Z" fill="#9333EA" fill-rule="evenodd" transform="translate(35.978 6.56)" />
          <path d="M9.6 3.2C9.6 4.96736 8.16736 6.39999 6.4 6.39999C6.4 6.39999 3.2 6.39999 3.2 6.39999C1.43264 6.39999 0 4.96736 0 3.2C0 1.43267 1.43264 0 3.2 0C3.2 0 6.4 0 6.4 0C8.16736 0 9.6 1.43267 9.6 3.2Z" fill="#9333EA" fill-rule="evenodd" transform="translate(41.6 22.4)" />
          <path d="M3.2 7.72546C4.44966 8.97515 6.4758 8.97515 7.72546 7.72546C8.97515 6.4758 8.97515 4.44966 7.72546 3.2C7.72546 3.2 5.46274 0.937246 5.46274 0.937246C4.21305 -0.312416 2.18694 -0.312416 0.937246 0.937246C-0.312416 2.18691 -0.312416 4.21305 0.937246 5.46271C0.937246 5.46271 3.2 7.72546 3.2 7.72546Z" fill="#9333EA" fill-rule="evenodd" transform="translate(6.56 6.56)" />
          <path d="M9.6 3.2C9.6 4.96736 8.1673 6.39999 6.4 6.39999C6.4 6.39999 3.2 6.39999 3.2 6.39999C1.4327 6.39999 0 4.96736 0 3.2C0 1.43267 1.4327 0 3.2 0C3.2 0 6.4 0 6.4 0C8.1673 0 9.6 1.43267 9.6 3.2Z" fill="#9333EA" fill-rule="evenodd" transform="translate(0 22.4)" />
          <path d="M0 0L12.8 0C12.8 0 12.8 3.2 12.8 3.2C12.8 6.73472 9.93472 9.6 6.4 9.6C2.86538 9.6 0 6.73472 0 3.2C0 3.2 0 0 0 0Z" fill="#9333EA" fill-rule="evenodd" transform="translate(19.2 41.6)" />
          <path d="M19.2029 25.6C19.2496 24.511 19.8643 23.5318 20.7257 22.8515C23.6947 20.5075 25.6 16.8762 25.6 12.8C25.6 5.73075 19.8691 0 12.8 0C5.73075 0 0 5.73075 0 12.8C0 16.8762 1.90544 20.5075 4.87421 22.8515C5.73571 23.5318 6.35043 24.511 6.39715 25.6C6.39715 25.6 19.2029 25.6 19.2029 25.6Z" fill="#9333EA" fill-rule="evenodd" transform="translate(12.8 12.8)" />
        </g>
      </g>
    </g>
    <g transform="translate(68 11)">
      <path d="M13.696 33.632Q10.944 33.632 8.64 32.656Q6.336 31.68 4.656 29.92Q2.976 28.16 2.048 25.824Q1.12 23.488 1.12 20.768Q1.12 18.048 2.048 15.712Q2.976 13.376 4.656 11.632Q6.336 9.888 8.64 8.912Q10.944 7.936 13.696 7.936Q16.448 7.936 18.752 8.896Q21.056 9.856 22.752 11.6Q24.448 13.344 25.376 15.68Q26.304 18.016 26.304 20.768Q26.304 23.488 25.376 25.824Q24.448 28.16 22.752 29.92Q21.056 31.68 18.752 32.656Q16.448 33.632 13.696 33.632ZM13.664 31.072Q15.744 31.072 17.44 30.24Q19.136 29.408 20.352 27.984Q21.568 26.56 22.208 24.688Q22.848 22.816 22.848 20.768Q22.848 18.688 22.208 16.832Q21.568 14.976 20.352 13.552Q19.136 12.128 17.44 11.312Q15.744 10.496 13.664 10.496Q11.584 10.496 9.904 11.312Q8.224 12.128 7.04 13.568Q5.856 15.008 5.216 16.848Q4.576 18.688 4.576 20.768Q4.576 22.816 5.216 24.688Q5.856 26.56 7.04 27.984Q8.224 29.408 9.904 30.24Q11.584 31.072 13.664 31.072ZM38.176 33.632Q36.832 33.632 35.856 33.248Q34.88 32.864 34.24 32.304Q33.6 31.744 33.232 31.2Q32.864 30.656 32.704 30.336L32.64 30.336L32.64 34.4Q32.64 36.192 32.72 37.984Q32.8 39.776 33.216 41.504L29.024 41.504Q29.44 39.776 29.52 37.984Q29.6 36.192 29.6 34.4L29.6 22.592Q29.6 20.864 29.472 19.76Q29.344 18.656 29.088 17.888Q28.832 17.12 28.384 16.416L28.384 16.224L32.64 15.328L32.608 17.952L32.832 17.952Q34.496 15.136 37.952 15.136Q40.288 15.136 42.112 16.336Q43.936 17.536 44.992 19.632Q46.048 21.728 46.048 24.416Q46.048 27.072 45.024 29.152Q44 31.232 42.224 32.432Q40.448 33.632 38.176 33.632ZM32.64 25.888Q32.64 28.224 33.952 29.648Q35.264 31.072 37.504 31.072Q40 31.072 41.456 29.28Q42.912 27.488 42.912 24.416Q42.912 21.344 41.552 19.52Q40.192 17.696 37.92 17.696Q36.224 17.696 35.072 18.592Q33.92 19.488 33.328 20.864Q32.736 22.24 32.64 23.744L32.64 25.888ZM56.768 33.632Q54.976 33.632 53.392 32.928Q51.808 32.224 50.576 30.976Q49.344 29.728 48.656 28.048Q47.968 26.368 47.968 24.416Q47.968 22.464 48.656 20.768Q49.344 19.072 50.56 17.808Q51.776 16.544 53.36 15.84Q54.944 15.136 56.736 15.136Q59.136 15.136 60.768 16.368Q62.4 17.6 63.248 19.696Q64.096 21.792 64.096 24.416L51.104 24.416Q51.104 26.24 51.952 27.76Q52.8 29.28 54.256 30.176Q55.712 31.072 57.504 31.072Q59.296 31.072 60.464 30.432Q61.632 29.792 62.336 28.736L63.488 29.728Q63.136 30.432 62.352 31.344Q61.568 32.256 60.208 32.944Q58.848 33.632 56.768 33.632ZM51.36 22.016L60.768 22.016Q60.416 20.032 59.36 18.864Q58.304 17.696 56.416 17.696Q54.368 17.696 53.088 18.864Q51.808 20.032 51.36 22.016ZM78.688 23.616Q78.688 22.592 78.592 21.552Q78.496 20.512 78.176 19.648Q77.856 18.784 77.152 18.24Q76.448 17.696 75.232 17.696Q73.344 17.696 72.336 18.592Q71.328 19.488 70.928 20.864Q70.528 22.24 70.432 23.744L70.432 26.08Q70.432 27.872 70.512 29.664Q70.592 31.456 71.008 33.184L66.816 33.184Q67.232 31.456 67.312 29.664Q67.392 27.872 67.392 26.08L67.392 22.624Q67.392 20.896 67.264 19.792Q67.136 18.688 66.88 17.92Q66.624 17.152 66.176 16.448L66.176 16.256L70.432 15.36L70.432 17.952L70.656 17.952Q71.136 17.152 71.696 16.528Q72.256 15.904 73.184 15.52Q74.112 15.136 75.68 15.136Q77.6 15.136 78.8 15.856Q80 16.576 80.624 17.792Q81.248 19.008 81.488 20.512Q81.728 22.016 81.728 23.616L81.728 26.08Q81.728 27.872 81.808 29.664Q81.888 31.456 82.304 33.184L78.112 33.184Q78.528 31.456 78.608 29.664Q78.688 27.872 78.688 26.08L78.688 23.616Z" fill="#475569" />
      <path d="M16.768 10.912L15.008 14.368L14.912 14.368Q14.688 13.472 14.032 12.576Q13.376 11.68 12.304 11.088Q11.232 10.496 9.664 10.496Q7.648 10.496 6.352 11.52Q5.056 12.544 5.056 14.24Q5.056 15.552 5.92 16.4Q6.784 17.248 8.16 17.904Q9.536 18.56 11.072 19.296Q12.704 20.064 14.176 21.072Q15.648 22.08 16.576 23.472Q17.504 24.864 17.504 26.816Q17.504 28.832 16.528 30.368Q15.552 31.904 13.744 32.768Q11.936 33.632 9.408 33.632Q7.424 33.632 5.952 33.184Q4.48 32.736 3.472 32.112Q2.464 31.488 1.888 30.912Q1.312 30.336 1.12 30.08L3.264 26.592L3.36 26.592Q3.776 27.648 4.56 28.672Q5.344 29.696 6.544 30.384Q7.744 31.072 9.408 31.072Q11.488 31.072 12.816 29.872Q14.144 28.672 14.144 26.816Q14.144 24.928 12.864 23.792Q11.584 22.656 9.728 21.76Q8.384 21.088 6.992 20.432Q5.6 19.776 4.416 18.928Q3.232 18.08 2.496 16.928Q1.76 15.776 1.728 14.144Q1.696 12.352 2.688 10.96Q3.68 9.568 5.504 8.752Q7.328 7.936 9.728 7.936Q11.552 7.936 12.848 8.336Q14.144 8.736 14.976 9.296Q15.808 9.856 16.24 10.32Q16.672 10.784 16.768 10.912ZM25.792 33.632Q21.28 33.632 21.28 27.872L21.28 17.792Q21.28 17.792 20.832 17.84Q20.384 17.888 19.776 17.968Q19.168 18.048 18.624 18.144L18.624 17.792L24 11.872L24.32 11.872L24.32 15.584L28.832 15.584L29.152 18.144Q28.512 18.016 27.888 17.952Q27.264 17.888 26.432 17.84Q25.6 17.792 24.32 17.792L24.32 27.744Q24.32 29.536 24.816 30.24Q25.312 30.944 26.56 30.944Q27.36 30.944 27.872 30.624Q28.384 30.304 28.8 29.696L29.696 30.912Q29.216 32.096 28.256 32.864Q27.296 33.632 25.792 33.632ZM34.912 25.12Q34.912 26.112 34.992 27.168Q35.072 28.224 35.36 29.088Q35.648 29.952 36.336 30.496Q37.024 31.04 38.208 31.04Q40.064 31.04 41.04 30.144Q42.016 29.248 42.4 27.856Q42.784 26.464 42.848 24.992L42.848 22.656Q42.848 20.864 42.768 19.072Q42.688 17.28 42.272 15.552L45.888 15.552L45.888 26.112Q45.888 27.84 46 28.88Q46.112 29.92 46.416 30.656Q46.72 31.392 47.232 32.192L47.232 32.384L43.168 33.376L42.848 30.784L42.624 30.784Q42.176 31.552 41.632 32.192Q41.088 32.832 40.192 33.216Q39.296 33.6 37.76 33.6Q35.872 33.6 34.704 32.88Q33.536 32.16 32.928 30.944Q32.32 29.728 32.096 28.208Q31.872 26.688 31.872 25.12L31.872 22.656Q31.872 20.864 31.792 19.072Q31.712 17.28 31.296 15.552L34.912 15.552L34.912 25.12ZM65.792 26.112Q65.792 27.84 65.904 28.944Q66.016 30.048 66.288 30.8Q66.56 31.552 66.976 32.288L66.976 32.48L62.72 33.376L62.752 30.336L62.656 30.336Q61.888 31.904 60.432 32.768Q58.976 33.632 57.184 33.632Q55.008 33.632 53.216 32.4Q51.424 31.168 50.368 29.072Q49.312 26.976 49.312 24.416Q49.312 21.792 50.384 19.696Q51.456 17.6 53.296 16.368Q55.136 15.136 57.408 15.136Q59.104 15.136 60.416 15.856Q61.728 16.576 62.528 17.952L62.752 17.952L62.752 15.488Q62.752 13.76 62.624 12.656Q62.496 11.552 62.24 10.784Q61.984 10.016 61.536 9.312L61.536 9.12L65.792 8.224L65.792 26.112ZM62.752 23.328Q62.624 21.888 62 20.608Q61.376 19.328 60.256 18.512Q59.136 17.696 57.44 17.696Q55.104 17.696 53.776 19.472Q52.448 21.248 52.448 24.416Q52.448 27.456 53.92 29.264Q55.392 31.072 57.856 31.072Q59.904 31.072 61.232 29.824Q62.56 28.576 62.752 26.56L62.752 23.328ZM78.176 33.632Q76.384 33.632 74.8 32.928Q73.216 32.224 71.984 30.976Q70.752 29.728 70.064 28.048Q69.376 26.368 69.376 24.416Q69.376 22.464 70.064 20.768Q70.752 19.072 71.968 17.808Q73.184 16.544 74.768 15.84Q76.352 15.136 78.144 15.136Q80.544 15.136 82.176 16.368Q83.808 17.6 84.656 19.696Q85.504 21.792 85.504 24.416L72.512 24.416Q72.512 26.24 73.36 27.76Q74.208 29.28 75.664 30.176Q77.12 31.072 78.912 31.072Q80.704 31.072 81.872 30.432Q83.04 29.792 83.744 28.736L84.896 29.728Q84.544 30.432 83.76 31.344Q82.976 32.256 81.616 32.944Q80.256 33.632 78.176 33.632ZM72.768 22.016L82.176 22.016Q81.824 20.032 80.768 18.864Q79.712 17.696 77.824 17.696Q75.776 17.696 74.496 18.864Q73.216 20.032 72.768 22.016ZM100.096 23.616Q100.096 22.592 100 21.552Q99.904 20.512 99.584 19.648Q99.264 18.784 98.56 18.24Q97.856 17.696 96.64 17.696Q94.752 17.696 93.744 18.592Q92.736 19.488 92.336 20.864Q91.936 22.24 91.84 23.744L91.84 26.08Q91.84 27.872 91.92 29.664Q92 31.456 92.416 33.184L88.224 33.184Q88.64 31.456 88.72 29.664Q88.8 27.872 88.8 26.08L88.8 22.624Q88.8 20.896 88.672 19.792Q88.544 18.688 88.288 17.92Q88.032 17.152 87.584 16.448L87.584 16.256L91.84 15.36L91.84 17.952L92.064 17.952Q92.544 17.152 93.104 16.528Q93.664 15.904 94.592 15.52Q95.52 15.136 97.088 15.136Q99.008 15.136 100.208 15.856Q101.408 16.576 102.032 17.792Q102.656 19.008 102.896 20.512Q103.136 22.016 103.136 23.616L103.136 26.08Q103.136 27.872 103.216 29.664Q103.296 31.456 103.712 33.184L99.52 33.184Q99.936 31.456 100.016 29.664Q100.096 27.872 100.096 26.08L100.096 23.616ZM112.8 33.632Q108.288 33.632 108.288 27.872L108.288 17.792Q108.288 17.792 107.84 17.84Q107.392 17.888 106.784 17.968Q106.176 18.048 105.632 18.144L105.632 17.792L111.008 11.872L111.328 11.872L111.328 15.584L115.84 15.584L116.16 18.144Q115.52 18.016 114.896 17.952Q114.272 17.888 113.44 17.84Q112.608 17.792 111.328 17.792L111.328 27.744Q111.328 29.536 111.824 30.24Q112.32 30.944 113.568 30.944Q114.368 30.944 114.88 30.624Q115.392 30.304 115.808 29.696L116.704 30.912Q116.224 32.096 115.264 32.864Q114.304 33.632 112.8 33.632Z" transform="translate(83.584 0)" fill="#9333EA" />
      <path d="M9.024 8.384Q11.456 8.384 13.488 9.264Q15.52 10.144 16.752 11.76Q17.984 13.376 17.984 15.584Q17.984 17.344 17.184 18.752Q16.384 20.16 14.992 21.136Q13.6 22.112 11.84 22.56L16.448 29.248Q17.216 30.24 18.064 31.232Q18.912 32.224 19.84 33.184L14.88 33.184Q14.464 32.256 13.808 31.152Q13.152 30.048 12.032 28.352L8.128 22.912L6.016 22.912L6.016 26.08Q6.016 27.872 6.096 29.664Q6.176 31.456 6.592 33.184L2.24 33.184Q2.656 31.456 2.736 29.664Q2.816 27.872 2.816 26.08L2.816 15.488Q2.816 13.696 2.736 11.904Q2.656 10.112 2.24 8.384L9.024 8.384ZM6.016 20.352L8.064 20.352Q11.2 20.352 12.864 19.136Q14.528 17.92 14.528 15.584Q14.528 13.216 12.864 12.08Q11.2 10.944 8.064 10.944L6.016 10.944L6.016 20.352ZM28.96 33.632Q27.168 33.632 25.584 32.928Q24 32.224 22.768 30.976Q21.536 29.728 20.848 28.048Q20.16 26.368 20.16 24.416Q20.16 22.464 20.848 20.768Q21.536 19.072 22.752 17.808Q23.968 16.544 25.552 15.84Q27.136 15.136 28.928 15.136Q31.328 15.136 32.96 16.368Q34.592 17.6 35.44 19.696Q36.288 21.792 36.288 24.416L23.296 24.416Q23.296 26.24 24.144 27.76Q24.992 29.28 26.448 30.176Q27.904 31.072 29.696 31.072Q31.488 31.072 32.656 30.432Q33.824 29.792 34.528 28.736L35.68 29.728Q35.328 30.432 34.544 31.344Q33.76 32.256 32.4 32.944Q31.04 33.632 28.96 33.632ZM23.552 22.016L32.96 22.016Q32.608 20.032 31.552 18.864Q30.496 17.696 28.608 17.696Q26.56 17.696 25.28 18.864Q24 20.032 23.552 22.016ZM48.544 16.96L48.16 20.192L48.032 20.192Q47.52 19.008 46.448 18.352Q45.376 17.696 44.16 17.696Q42.784 17.696 41.936 18.224Q41.088 18.752 41.088 19.872Q41.088 21.088 42.096 21.728Q43.104 22.368 44.416 22.912Q45.568 23.392 46.72 24.016Q47.872 24.64 48.64 25.68Q49.408 26.72 49.408 28.48Q49.408 30.144 48.592 31.296Q47.776 32.448 46.416 33.04Q45.056 33.632 43.424 33.632Q42.048 33.632 40.96 33.168Q39.872 32.704 39.152 32.064Q38.432 31.424 38.208 30.912L38.656 27.36L38.784 27.36Q38.848 27.744 39.184 28.368Q39.52 28.992 40.128 29.6Q40.736 30.208 41.568 30.64Q42.4 31.072 43.424 31.072Q44.864 31.072 45.744 30.368Q46.624 29.664 46.624 28.384Q46.624 27.168 45.616 26.496Q44.608 25.824 43.264 25.248Q42.112 24.736 40.976 24.144Q39.84 23.552 39.088 22.576Q38.336 21.6 38.336 20.032Q38.336 18.368 39.12 17.296Q39.904 16.224 41.232 15.68Q42.56 15.136 44.192 15.136Q45.984 15.136 47.056 15.792Q48.128 16.448 48.544 16.96ZM61.28 33.632Q59.936 33.632 58.96 33.248Q57.984 32.864 57.344 32.304Q56.704 31.744 56.336 31.2Q55.968 30.656 55.808 30.336L55.744 30.336L55.744 34.4Q55.744 36.192 55.824 37.984Q55.904 39.776 56.32 41.504L52.128 41.504Q52.544 39.776 52.624 37.984Q52.704 36.192 52.704 34.4L52.704 22.592Q52.704 20.864 52.576 19.76Q52.448 18.656 52.192 17.888Q51.936 17.12 51.488 16.416L51.488 16.224L55.744 15.328L55.712 17.952L55.936 17.952Q57.6 15.136 61.056 15.136Q63.392 15.136 65.216 16.336Q67.04 17.536 68.096 19.632Q69.152 21.728 69.152 24.416Q69.152 27.072 68.128 29.152Q67.104 31.232 65.328 32.432Q63.552 33.632 61.28 33.632ZM55.744 25.888Q55.744 28.224 57.056 29.648Q58.368 31.072 60.608 31.072Q63.104 31.072 64.56 29.28Q66.016 27.488 66.016 24.416Q66.016 21.344 64.656 19.52Q63.296 17.696 61.024 17.696Q59.328 17.696 58.176 18.592Q57.024 19.488 56.432 20.864Q55.84 22.24 55.744 23.744L55.744 25.888ZM79.872 33.632Q77.344 33.632 75.344 32.416Q73.344 31.2 72.208 29.104Q71.072 27.008 71.072 24.416Q71.072 21.792 72.208 19.696Q73.344 17.6 75.344 16.368Q77.344 15.136 79.872 15.136Q82.432 15.136 84.416 16.368Q86.4 17.6 87.552 19.696Q88.704 21.792 88.704 24.416Q88.704 27.008 87.552 29.104Q86.4 31.2 84.416 32.416Q82.432 33.632 79.872 33.632ZM79.84 31.072Q81.504 31.072 82.784 30.224Q84.064 29.376 84.816 27.872Q85.568 26.368 85.568 24.416Q85.568 22.432 84.816 20.912Q84.064 19.392 82.784 18.544Q81.504 17.696 79.84 17.696Q78.208 17.696 76.928 18.56Q75.648 19.424 74.928 20.928Q74.208 22.432 74.208 24.416Q74.208 26.368 74.928 27.872Q75.648 29.376 76.928 30.224Q78.208 31.072 79.84 31.072ZM101.12 16.96L100.736 20.192L100.608 20.192Q100.096 19.008 99.024 18.352Q97.952 17.696 96.736 17.696Q95.36 17.696 94.512 18.224Q93.664 18.752 93.664 19.872Q93.664 21.088 94.672 21.728Q95.68 22.368 96.992 22.912Q98.144 23.392 99.296 24.016Q100.448 24.64 101.216 25.68Q101.984 26.72 101.984 28.48Q101.984 30.144 101.168 31.296Q100.352 32.448 98.992 33.04Q97.632 33.632 96 33.632Q94.624 33.632 93.536 33.168Q92.448 32.704 91.728 32.064Q91.008 31.424 90.784 30.912L91.232 27.36L91.36 27.36Q91.424 27.744 91.76 28.368Q92.096 28.992 92.704 29.6Q93.312 30.208 94.144 30.64Q94.976 31.072 96 31.072Q97.44 31.072 98.32 30.368Q99.2 29.664 99.2 28.384Q99.2 27.168 98.192 26.496Q97.184 25.824 95.84 25.248Q94.688 24.736 93.552 24.144Q92.416 23.552 91.664 22.576Q90.912 21.6 90.912 20.032Q90.912 18.368 91.696 17.296Q92.48 16.224 93.808 15.68Q95.136 15.136 96.768 15.136Q98.56 15.136 99.632 15.792Q100.704 16.448 101.12 16.96ZM107.008 7.968L109.664 10.592L107.008 13.248L104.384 10.592L107.008 7.968ZM105.824 26.08L105.824 22.624Q105.824 20.896 105.696 19.792Q105.568 18.688 105.312 17.92Q105.056 17.152 104.608 16.448L104.608 16.256L108.864 15.36L108.864 26.08Q108.864 27.872 108.944 29.664Q109.024 31.456 109.44 33.184L105.248 33.184Q105.664 31.456 105.744 29.664Q105.824 27.872 105.824 26.08ZM118.912 33.632Q114.4 33.632 114.4 27.872L114.4 17.792Q114.4 17.792 113.952 17.84Q113.504 17.888 112.896 17.968Q112.288 18.048 111.744 18.144L111.744 17.792L117.12 11.872L117.44 11.872L117.44 15.584L121.952 15.584L122.272 18.144Q121.632 18.016 121.008 17.952Q120.384 17.888 119.552 17.84Q118.72 17.792 117.44 17.792L117.44 27.744Q117.44 29.536 117.936 30.24Q118.432 30.944 119.68 30.944Q120.48 30.944 120.992 30.624Q121.504 30.304 121.92 29.696L122.816 30.912Q122.336 32.096 121.376 32.864Q120.416 33.632 118.912 33.632ZM131.936 33.632Q129.408 33.632 127.408 32.416Q125.408 31.2 124.272 29.104Q123.136 27.008 123.136 24.416Q123.136 21.792 124.272 19.696Q125.408 17.6 127.408 16.368Q129.408 15.136 131.936 15.136Q134.496 15.136 136.48 16.368Q138.464 17.6 139.616 19.696Q140.768 21.792 140.768 24.416Q140.768 27.008 139.616 29.104Q138.464 31.2 136.48 32.416Q134.496 33.632 131.936 33.632ZM131.904 31.072Q133.568 31.072 134.848 30.224Q136.128 29.376 136.88 27.872Q137.632 26.368 137.632 24.416Q137.632 22.432 136.88 20.912Q136.128 19.392 134.848 18.544Q133.568 17.696 131.904 17.696Q130.272 17.696 128.992 18.56Q127.712 19.424 126.992 20.928Q126.272 22.432 126.272 24.416Q126.272 26.368 126.992 27.872Q127.712 29.376 128.992 30.224Q130.272 31.072 131.904 31.072ZM154.08 19.488Q153.568 18.592 152.864 18.304Q152.16 18.016 151.232 18.016Q149.792 18.016 148.96 18.976Q148.128 19.936 147.744 21.52Q147.36 23.104 147.264 25.024L147.264 26.08Q147.264 27.872 147.344 29.664Q147.424 31.456 147.84 33.184L143.648 33.184Q144.064 31.456 144.144 29.664Q144.224 27.872 144.224 26.08L144.224 22.624Q144.224 20.896 144.096 19.792Q143.968 18.688 143.712 17.92Q143.456 17.152 143.008 16.448L143.008 16.256L147.264 15.36L147.264 18.912L147.488 18.912Q147.904 17.248 149.136 16.192Q150.368 15.136 152.192 15.136Q153.152 15.136 153.712 15.408Q154.272 15.68 154.272 15.68L154.272 19.488L154.08 19.488ZM165.632 33.184Q164.448 36 163.776 38.032Q163.104 40.064 162.848 41.472L158.496 41.472Q159.456 40.032 160.48 37.984Q161.504 35.936 162.688 33.056L158.144 21.984Q157.152 19.584 156.432 18.176Q155.712 16.768 154.912 15.584L159.2 15.584Q159.392 16.736 159.84 18.096Q160.288 19.456 161.184 21.728L164.224 29.6L167.392 21.728Q168.32 19.456 168.752 18.096Q169.184 16.736 169.408 15.584L173.472 15.584Q172.672 16.768 171.968 18.176Q171.264 19.584 170.24 21.984L165.632 33.184Z" transform="translate(200.928 0)" fill="#475569" />
    </g>
  </g>
</svg>