<?xml version="1.0" encoding="utf-8"?>
<svg width="125.5" height="98.25" viewBox="0 0 125.5 98.25" fill="none" xmlns="http://www.w3.org/2000/svg">
  <g transform="translate(1.25 1)">
    <path d="M0 61.5C0 49.6259 9.84973 40 22 40C22.5167 40 23.0292 40.0174 23.537 40.0517C23.1842 38.0878 23 36.0654 23 34C23 15.2223 38.2223 0 57 0C71.991 0 84.7161 9.70198 89.2386 23.1695C90.3102 23.0575 91.3983 23 92.5 23C109.345 23 123 36.4315 123 53C123 68.7406 110.675 81.7273 95 82.9782C95 82.9782 95 83 95 83L38.5078 83C38.5078 83 22 83 22 83C9.84973 83 0 73.3741 0 61.5ZM33.996 83L27.0314 83L33.996 83Z" fill="#FFFFFF" fill-rule="evenodd" stroke-width="2.5" stroke="#7E22CE" stroke-linecap="round" transform="translate(0 13)" />
    <path d="M109 63.7029C104.317 69.4611 97.0855 73.3675 88.8469 73.9813C88.8469 73.9813 88.8469 74 88.8469 74C88.8469 74 21.7431 74 21.7431 74C13.6013 74 0 70.5697 0 55.5483C0 40.527 10.5742 37.0967 21.7431 37.0967C22.218 37.0967 22.6891 37.1116 23.1559 37.141C22.8316 35.4556 22.7746 33.7184 22.6623 31.9474C21.9038 19.9842 27.1229 4.90697 42.6304 0C42.618 0.44733 42.6123 0.894428 42.6123 1.34263C42.6123 33.5657 71.6328 60.118 109 63.7029ZM47.6142 57.1949C47.6142 60.1976 50.0776 62.6318 53.1163 62.6318C56.155 62.6318 58.6184 60.1976 58.6184 57.1949C58.6184 54.1922 56.155 51.7579 53.1163 51.7579C50.0776 51.7579 47.6142 54.1922 47.6142 57.1949Z" fill="#E8F0FE" fill-rule="evenodd" transform="translate(4 19)" />
    <path d="M5.5 11C2.46243 11 0 8.53757 0 5.5C0 2.46243 2.46243 0 5.5 0C8.53757 0 11 2.46243 11 5.5C11 8.53757 8.53757 11 5.5 11Z" fill="none" stroke-width="2.5" stroke="#7E22CE" transform="translate(52 71)" />
    <path d="M0 10.7224L7 5.22926L0 0" fill="none" stroke-width="2.5" stroke="#7E22CE" stroke-linecap="round" stroke-linejoin="round" transform="translate(42 54.278)" />
    <path d="M7 0L0 5.49314L7 10.7224" fill="none" stroke-width="2.5" stroke="#7E22CE" stroke-linecap="round" stroke-linejoin="round" transform="translate(66 43.556)" />
    <path d="M0 13.2932C6.50891 11.5706 11.6482 6.48035 13.4403 0" fill="none" stroke-width="2.5" stroke="#C084FC" stroke-linecap="round" transform="translate(67 9.707)" />
    <path d="M3 6C1.34314 6 0 4.65685 0 3C0 1.34315 1.34314 0 3 0C4.65686 0 6 1.34315 6 3C6 4.65685 4.65686 6 3 6Z" fill="none" stroke-width="2" stroke="#C084FC" transform="translate(85 0)" />
    <path d="M3 6C1.34314 6 0 4.65685 0 3C0 1.34315 1.34314 0 3 0C4.65686 0 6 1.34315 6 3C6 4.65685 4.65686 6 3 6Z" fill="#C084FC" fill-rule="evenodd" transform="translate(116 16)" />
    <path d="M0.493179 10.4921C0.522125 10.5211 0.552422 10.5485 0.584068 10.5745C0.615715 10.6005 0.64856 10.6248 0.682602 10.6476C0.716637 10.6703 0.751709 10.6913 0.787819 10.7106C0.823921 10.7299 0.860886 10.7474 0.898705 10.7631C0.936531 10.7787 0.975029 10.7925 1.01421 10.8044C1.05338 10.8163 1.09305 10.8262 1.1332 10.8342C1.17335 10.8422 1.2138 10.8482 1.25454 10.8522C1.29528 10.8562 1.33612 10.8582 1.37706 10.8582C1.418 10.8582 1.45884 10.8562 1.49958 10.8522C1.54032 10.8482 1.58077 10.8422 1.62092 10.8342C1.66107 10.8262 1.70074 10.8163 1.73991 10.8044C1.77909 10.7925 1.81759 10.7787 1.85542 10.7631C1.89323 10.7474 1.9302 10.7299 1.9663 10.7106C2.00241 10.6913 2.03748 10.6703 2.07152 10.6476C2.10556 10.6248 2.1384 10.6005 2.17005 10.5745C2.2017 10.5485 2.23199 10.5211 2.26094 10.4921C2.26094 10.4921 10.6192 2.13388 10.6192 2.13388C10.6481 2.10494 10.6756 2.07464 10.7016 2.04299C10.7275 2.01135 10.7519 1.9785 10.7746 1.94446C10.7974 1.91042 10.8184 1.87535 10.8377 1.83925C10.857 1.80314 10.8745 1.76618 10.8901 1.72836C10.9058 1.69053 10.9196 1.65203 10.9315 1.61286C10.9433 1.57368 10.9533 1.53402 10.9613 1.49386C10.9693 1.45371 10.9753 1.41326 10.9793 1.37252C10.9833 1.33178 10.9853 1.29094 10.9853 1.25C10.9853 1.20906 10.9833 1.16822 10.9793 1.12748C10.9753 1.08674 10.9693 1.04629 10.9613 1.00614C10.9533 0.965984 10.9433 0.92632 10.9315 0.887144C10.9196 0.847967 10.9058 0.809467 10.8901 0.771645C10.8745 0.733822 10.857 0.696858 10.8377 0.660753C10.8184 0.624648 10.7974 0.589577 10.7746 0.555537C10.7519 0.521497 10.7275 0.488654 10.7016 0.457008C10.6756 0.425362 10.6481 0.395064 10.6192 0.366116C10.5902 0.337168 10.5599 0.309708 10.5283 0.283736C10.4966 0.257765 10.4638 0.233407 10.4297 0.21066C10.3957 0.18792 10.3606 0.1669 10.3245 0.1476C10.2884 0.1283 10.2515 0.110817 10.2136 0.09515C10.1758 0.079483 10.1373 0.0657063 10.0982 0.0538197C10.059 0.0419397 10.0193 0.0320063 9.97915 0.0240202C9.939 0.0160332 9.89855 0.0100336 9.85781 0.00601959C9.81707 0.00200653 9.77623 0 9.73529 0C9.69435 0 9.65351 0.00200653 9.61277 0.00601959C9.57203 0.0100336 9.53159 0.0160332 9.49143 0.0240202C9.45128 0.0320063 9.41161 0.0419397 9.37244 0.0538197C9.33326 0.0657063 9.29476 0.079483 9.25694 0.09515C9.21912 0.110817 9.18215 0.1283 9.14605 0.1476C9.10994 0.1669 9.07487 0.18792 9.04083 0.21066C9.00679 0.233407 8.97395 0.257765 8.9423 0.283736C8.91065 0.309708 8.88036 0.337168 8.85141 0.366116C8.85141 0.366116 0.493179 8.72434 0.493179 8.72434C0.464233 8.75329 0.436768 8.78359 0.410797 8.81524C0.384827 8.84688 0.360474 8.87972 0.337723 8.91376C0.31498 8.9478 0.293961 8.98287 0.274658 9.01898C0.255363 9.05509 0.237877 9.09205 0.222214 9.12987C0.206543 9.1677 0.192772 9.2062 0.180893 9.24537C0.169006 9.28455 0.159065 9.32421 0.151077 9.36436C0.143097 9.40451 0.137093 9.44496 0.13308 9.48571C0.129066 9.52645 0.12706 9.56729 0.12706 9.60823C0.12706 9.64917 0.129066 9.69001 0.13308 9.73075C0.137093 9.77149 0.143097 9.81194 0.151077 9.85209C0.159065 9.89224 0.169006 9.93191 0.180893 9.97108C0.192772 10.0103 0.206543 10.0488 0.222214 10.0866C0.237877 10.1244 0.255363 10.1614 0.274658 10.1975C0.293961 10.2336 0.31498 10.2687 0.337723 10.3027C0.360474 10.3367 0.384827 10.3696 0.410797 10.4012C0.436768 10.4329 0.464233 10.4632 0.493179 10.4921ZM2.13388 0.366116C2.10493 0.337168 2.07464 0.309708 2.04299 0.283736C2.01134 0.257765 1.9785 0.233407 1.94446 0.21066C1.91042 0.18792 1.87535 0.1669 1.83924 0.1476C1.80314 0.1283 1.76617 0.110817 1.72836 0.09515C1.69053 0.079483 1.65203 0.0657063 1.61285 0.0538197C1.57368 0.0419397 1.53401 0.0320063 1.49386 0.0240202C1.45371 0.0160332 1.41326 0.0100336 1.37252 0.00601959C1.33178 0.00200653 1.29094 0 1.25 0C1.20906 0 1.16822 0.00200653 1.12748 0.00601959C1.08674 0.0100336 1.04629 0.0160332 1.00614 0.0240202C0.965988 0.0320063 0.926323 0.0419397 0.887146 0.0538197C0.847969 0.0657063 0.809471 0.079483 0.771645 0.09515C0.733826 0.110817 0.696861 0.1283 0.660759 0.1476C0.624649 0.1669 0.589577 0.18792 0.555542 0.21066C0.5215 0.233407 0.488655 0.257765 0.457008 0.283736C0.425362 0.309708 0.395065 0.337168 0.366119 0.366116C0.337173 0.395064 0.309708 0.425362 0.283737 0.457008C0.257767 0.488654 0.233414 0.521497 0.21067 0.555537C0.18792 0.589577 0.166901 0.624648 0.147598 0.660753C0.128304 0.696858 0.110817 0.733822 0.0951538 0.771645C0.079483 0.809467 0.065712 0.847967 0.053833 0.887144C0.0419464 0.92632 0.0320053 0.965984 0.0240173 1.00614C0.016037 1.04629 0.0100327 1.08674 0.00601959 1.12748C0.00200653 1.16822 0 1.20906 0 1.25C0 1.29094 0.00200653 1.33178 0.00601959 1.37252C0.0100327 1.41326 0.016037 1.45371 0.0240173 1.49386C0.0320053 1.53402 0.0419464 1.57368 0.053833 1.61286C0.065712 1.65203 0.079483 1.69053 0.0951538 1.72836C0.110817 1.76618 0.128304 1.80314 0.147598 1.83925C0.166901 1.87535 0.18792 1.91042 0.21067 1.94446C0.233414 1.9785 0.257767 2.01135 0.283737 2.04299C0.309708 2.07464 0.337173 2.10494 0.366119 2.13388C0.366119 2.13388 8.72435 10.4921 8.72435 10.4921C8.7533 10.5211 8.78359 10.5485 8.81524 10.5745C8.84689 10.6005 8.87973 10.6248 8.91377 10.6476C8.94781 10.6703 8.98288 10.6913 9.01899 10.7106C9.05509 10.7299 9.09206 10.7474 9.12988 10.7631C9.1677 10.7787 9.2062 10.7925 9.24538 10.8044C9.28455 10.8163 9.32422 10.8262 9.36437 10.8342C9.40453 10.8422 9.44497 10.8482 9.48571 10.8522C9.52645 10.8562 9.56729 10.8582 9.60823 10.8582C9.64917 10.8582 9.69001 10.8562 9.73075 10.8522C9.77149 10.8482 9.81194 10.8422 9.85209 10.8342C9.89224 10.8262 9.93191 10.8163 9.97109 10.8044C10.0103 10.7925 10.0488 10.7787 10.0866 10.7631C10.1244 10.7474 10.1614 10.7299 10.1975 10.7106C10.2336 10.6913 10.2686 10.6703 10.3027 10.6476C10.3367 10.6248 10.3696 10.6005 10.4012 10.5745C10.4329 10.5485 10.4632 10.5211 10.4921 10.4921C10.5211 10.4632 10.5485 10.4329 10.5745 10.4012C10.6005 10.3696 10.6248 10.3367 10.6476 10.3027C10.6703 10.2687 10.6913 10.2336 10.7106 10.1975C10.7299 10.1614 10.7474 10.1244 10.7631 10.0866C10.7787 10.0488 10.7925 10.0103 10.8044 9.97108C10.8163 9.93191 10.8262 9.89224 10.8342 9.85209C10.8422 9.81194 10.8482 9.77149 10.8522 9.73075C10.8562 9.69001 10.8582 9.64917 10.8582 9.60823C10.8582 9.56729 10.8562 9.52645 10.8522 9.48571C10.8482 9.44496 10.8422 9.40451 10.8342 9.36436C10.8262 9.32421 10.8163 9.28455 10.8044 9.24537C10.7925 9.2062 10.7787 9.1677 10.7631 9.12987C10.7474 9.09205 10.7299 9.05509 10.7106 9.01898C10.6913 8.98287 10.6703 8.9478 10.6476 8.91376C10.6248 8.87972 10.6005 8.84688 10.5745 8.81524C10.5485 8.78359 10.5211 8.75329 10.4921 8.72434C10.4921 8.72434 2.13388 0.366116 2.13388 0.366116Z" fill="none" stroke-width="2.5" stroke="#C084FC" stroke-linecap="round" stroke-linejoin="round" transform="translate(94.507 12.507)" />
    <path d="M0.366119 6.36612C0.337171 6.39507 0.309711 6.42536 0.283739 6.45701C0.257766 6.48866 0.23341 6.5215 0.21067 6.55554C0.187923 6.58958 0.1669 6.62465 0.1476 6.66076C0.1283 6.69686 0.110817 6.73382 0.09515 6.77165C0.0794834 6.80947 0.0657101 6.84797 0.05383 6.88715C0.0419433 6.92632 0.0320066 6.96599 0.02402 7.00614C0.0160333 7.0463 0.0100334 7.08674 0.00601995 7.12748C0.00200665 7.16822 0 7.20906 0 7.25C0 7.29094 0.00200665 7.33178 0.00601995 7.37252C0.0100334 7.41326 0.0160333 7.4537 0.02402 7.49386C0.0320066 7.53401 0.0419433 7.57368 0.05383 7.61285C0.0657101 7.65203 0.0794834 7.69053 0.09515 7.72835C0.110817 7.76618 0.1283 7.80314 0.1476 7.83924C0.1669 7.87535 0.187923 7.91042 0.21067 7.94446C0.23341 7.9785 0.257766 8.01134 0.283739 8.04299C0.309711 8.07464 0.337171 8.10493 0.366119 8.13388C0.395068 8.16283 0.425365 8.19028 0.457011 8.21626C0.488657 8.24223 0.5215 8.26659 0.55554 8.28933C0.589579 8.31208 0.624651 8.3331 0.660756 8.3524C0.696861 8.3717 0.733824 8.38918 0.771647 8.40485C0.80947 8.42052 0.847969 8.43429 0.887145 8.44617C0.926321 8.45806 0.965985 8.46799 1.00614 8.47598C1.04629 8.48397 1.08674 8.48997 1.12748 8.49398C1.16822 8.49799 1.20906 8.5 1.25 8.5C1.29094 8.5 1.33178 8.49799 1.37252 8.49398C1.41326 8.48997 1.45371 8.48397 1.49386 8.47598C1.53401 8.46799 1.57368 8.45806 1.61285 8.44617C1.65203 8.43429 1.69053 8.42052 1.72835 8.40485C1.76618 8.38918 1.80314 8.3717 1.83924 8.3524C1.87535 8.3331 1.91042 8.31208 1.94446 8.28933C1.9785 8.26659 2.01134 8.24223 2.04299 8.21626C2.07464 8.19028 2.10493 8.16283 2.13388 8.13388C2.13388 8.13388 8.13388 2.13388 8.13388 2.13388C8.16283 2.10493 8.19029 2.07463 8.21626 2.04299C8.24223 2.01134 8.26659 1.9785 8.28933 1.94446C8.31208 1.91042 8.3331 1.87535 8.3524 1.83924C8.3717 1.80314 8.38918 1.76617 8.40485 1.72835C8.42052 1.69053 8.43429 1.65203 8.44617 1.61285C8.45806 1.57368 8.46799 1.53402 8.47598 1.49386C8.48397 1.45371 8.48997 1.41326 8.49398 1.37252C8.49799 1.33178 8.5 1.29094 8.5 1.25C8.5 1.20906 8.49799 1.16822 8.49398 1.12748C8.48997 1.08674 8.48397 1.04629 8.47598 1.00614C8.46799 0.965984 8.45806 0.926321 8.44617 0.887146C8.43429 0.847969 8.42052 0.809469 8.40485 0.771646C8.38918 0.733824 8.3717 0.696861 8.3524 0.660755C8.3331 0.624651 8.31208 0.589579 8.28933 0.555538C8.26659 0.5215 8.24223 0.488657 8.21626 0.45701C8.19029 0.425365 8.16283 0.395067 8.13388 0.366119C8.10493 0.337172 8.07464 0.309711 8.04299 0.283739C8.01134 0.257767 7.9785 0.23341 7.94446 0.21067C7.91042 0.187923 7.87535 0.166901 7.83924 0.1476C7.80314 0.1283 7.76618 0.110817 7.72835 0.09515C7.69053 0.079483 7.65203 0.0657101 7.61285 0.0538292C7.57368 0.0419426 7.53401 0.0320072 7.49386 0.0240192C7.45371 0.0160332 7.41326 0.0100327 7.37252 0.00601959C7.33178 0.00200653 7.29094 0 7.25 0C7.20906 0 7.16822 0.00200653 7.12748 0.00601959C7.08674 0.0100327 7.04629 0.0160332 7.00614 0.0240192C6.96599 0.0320072 6.92632 0.0419426 6.88715 0.0538292C6.84797 0.0657101 6.80947 0.079483 6.77165 0.09515C6.73382 0.110817 6.69686 0.1283 6.66076 0.1476C6.62465 0.166901 6.58958 0.187923 6.55554 0.21067C6.5215 0.23341 6.48866 0.257767 6.45701 0.283739C6.42536 0.309711 6.39507 0.337172 6.36612 0.366119C6.36612 0.366119 0.366119 6.36612 0.366119 6.36612ZM2.13388 0.366119C2.10493 0.337172 2.07464 0.309711 2.04299 0.283739C2.01134 0.257767 1.9785 0.23341 1.94446 0.21067C1.91042 0.187923 1.87535 0.166901 1.83924 0.1476C1.80314 0.1283 1.76618 0.110817 1.72835 0.09515C1.69053 0.079483 1.65203 0.0657101 1.61285 0.0538292C1.57368 0.0419426 1.53401 0.0320072 1.49386 0.0240192C1.45371 0.0160332 1.41326 0.0100327 1.37252 0.00601959C1.33178 0.00200653 1.29094 0 1.25 0C1.20906 0 1.16822 0.00200653 1.12748 0.00601959C1.08674 0.0100327 1.04629 0.0160332 1.00614 0.0240192C0.965985 0.0320072 0.926321 0.0419426 0.887145 0.0538292C0.847969 0.0657101 0.80947 0.079483 0.771647 0.09515C0.733824 0.110817 0.696861 0.1283 0.660756 0.1476C0.624651 0.166901 0.589579 0.187923 0.555539 0.21067C0.5215 0.23341 0.488657 0.257767 0.457011 0.283739C0.425365 0.309711 0.395068 0.337172 0.366119 0.366119C0.337171 0.395067 0.309711 0.425365 0.283739 0.45701C0.257766 0.488657 0.23341 0.5215 0.21067 0.55554C0.187923 0.589579 0.1669 0.624651 0.1476 0.660755C0.1283 0.696861 0.110817 0.733824 0.09515 0.771646C0.0794834 0.809469 0.0657101 0.847969 0.05383 0.887146C0.0419433 0.926321 0.0320066 0.965984 0.02402 1.00614C0.0160333 1.04629 0.0100334 1.08674 0.00601995 1.12748C0.00200665 1.16822 0 1.20906 0 1.25C0 1.29094 0.00200665 1.33178 0.00601995 1.37252C0.0100334 1.41326 0.0160333 1.45371 0.02402 1.49386C0.0320066 1.53402 0.0419433 1.57368 0.05383 1.61285C0.0657101 1.65203 0.0794834 1.69053 0.09515 1.72835C0.110817 1.76617 0.1283 1.80314 0.1476 1.83924C0.1669 1.87535 0.187923 1.91042 0.21067 1.94446C0.23341 1.9785 0.257766 2.01134 0.283739 2.04299C0.309711 2.07463 0.337171 2.10493 0.366119 2.13388C0.366119 2.13388 6.36612 8.13388 6.36612 8.13388C6.39507 8.16283 6.42536 8.19028 6.45701 8.21626C6.48866 8.24223 6.5215 8.26659 6.55554 8.28933C6.58958 8.31208 6.62465 8.3331 6.66076 8.3524C6.69686 8.3717 6.73382 8.38918 6.77165 8.40485C6.80947 8.42052 6.84797 8.43429 6.88715 8.44617C6.92632 8.45806 6.96599 8.46799 7.00614 8.47598C7.04629 8.48397 7.08674 8.48997 7.12748 8.49398C7.16822 8.49799 7.20906 8.5 7.25 8.5C7.29094 8.5 7.33178 8.49799 7.37252 8.49398C7.41326 8.48997 7.45371 8.48397 7.49386 8.47598C7.53401 8.46799 7.57368 8.45806 7.61285 8.44617C7.65203 8.43429 7.69053 8.42052 7.72835 8.40485C7.76618 8.38918 7.80314 8.3717 7.83924 8.3524C7.87535 8.3331 7.91042 8.31208 7.94446 8.28933C7.9785 8.26659 8.01134 8.24223 8.04299 8.21626C8.07464 8.19028 8.10493 8.16283 8.13388 8.13388C8.16283 8.10493 8.19029 8.07464 8.21626 8.04299C8.24223 8.01134 8.26659 7.9785 8.28933 7.94446C8.31208 7.91042 8.3331 7.87535 8.3524 7.83924C8.3717 7.80314 8.38918 7.76618 8.40485 7.72835C8.42052 7.69053 8.43429 7.65203 8.44617 7.61285C8.45806 7.57368 8.46799 7.53401 8.47598 7.49386C8.48397 7.4537 8.48997 7.41326 8.49398 7.37252C8.49799 7.33178 8.5 7.29094 8.5 7.25C8.5 7.20906 8.49799 7.16822 8.49398 7.12748C8.48997 7.08674 8.48397 7.0463 8.47598 7.00614C8.46799 6.96599 8.45806 6.92632 8.44617 6.88715C8.43429 6.84797 8.42052 6.80947 8.40485 6.77165C8.38918 6.73382 8.3717 6.69686 8.3524 6.66076C8.3331 6.62465 8.31208 6.58958 8.28933 6.55554C8.26659 6.5215 8.24223 6.48866 8.21626 6.45701C8.19029 6.42536 8.16283 6.39507 8.13388 6.36612C8.13388 6.36612 2.13388 0.366119 2.13388 0.366119Z" fill="none" stroke-width="2.5" stroke="#C084FC" stroke-linecap="round" stroke-linejoin="round" transform="translate(0.154 30.346)" />
    <path d="M3 6C1.34315 6 0 4.65685 0 3C0 1.34315 1.34315 0 3 0C4.65685 0 6 1.34315 6 3C6 4.65685 4.65685 6 3 6Z" fill="#C084FC" fill-rule="evenodd" transform="translate(12 19)" />
  </g>
</svg>